<svg xmlns="http://www.w3.org/2000/svg" viewBox="0 0 750 500"><g id="freepik--background-complete--inject-81"><path d="M611.08,290.54S566,390.94,639.77,390.94s26-103.82,26-103.82,17.07-7.51-2.73-63.52-28.66-56-36.89-56c-10.39,0-20.07,24.25-13,61.47C613.13,229.06,587.18,275.51,611.08,290.54Z" style="fill:#ebebeb"></path><polygon points="646.32 457.53 639.21 306.28 632.1 457.53 646.32 457.53" style="fill:#a6a6a6"></polygon><polygon points="642.1 369.69 615.29 338.38 636.32 373.83 642.1 369.69" style="fill:#a6a6a6"></polygon><path d="M136.67,295.91s43.63,97.18-27.77,97.18S83.78,292.6,83.78,292.6s-16.53-7.27,2.65-61.47,27.73-54.21,35.69-54.21c10.06,0,19.43,23.47,12.56,59.49C134.68,236.41,159.8,281.37,136.67,295.91Z" style="fill:#dbdbdb"></path><polygon points="102.57 457.53 109.45 311.14 116.33 457.53 102.57 457.53" style="fill:#a6a6a6"></polygon><polygon points="106.65 372.52 132.6 342.21 112.25 376.53 106.65 372.52" style="fill:#a6a6a6"></polygon><path d="M278.54,295.91s-43.63,97.18,27.76,97.18S331.42,292.6,331.42,292.6s16.53-7.27-2.64-61.47-27.74-54.21-35.7-54.21c-10.06,0-19.42,23.47-12.56,59.49C280.52,236.41,255.4,281.37,278.54,295.91Z" style="fill:#dbdbdb"></path><polygon points="312.64 457.53 305.76 311.14 298.88 457.53 312.64 457.53" style="fill:#a6a6a6"></polygon><polygon points="308.55 372.52 282.61 342.21 302.96 376.53 308.55 372.52" style="fill:#a6a6a6"></polygon><path d="M574,288.57s22.75-9,40.81,22.4c18.52,32.22-4.69,53.45-23.12,40.81,0,0-14.44,30.34-43.34,23.12s-33.59-30.34-33.59-30.34-25.64,1.8-26.37-17.34,18.06-36.12,18.06-36.12,1.09-47.68,32.15-47.31S574,288.57,574,288.57Z" style="fill:#dbdbdb"></path><polygon points="552.88 457.53 546.38 315.66 539.87 457.53 552.88 457.53" style="fill:#a6a6a6"></polygon><polygon points="549.16 367.27 568.25 329.18 543.59 363.93 549.16 367.27" style="fill:#a6a6a6"></polygon><path d="M219.17,272.94s-24.86-9.87-44.59,24.47c-20.23,35.2,5.13,58.4,25.25,44.59,0,0,15.79,33.15,47.36,25.25s36.7-33.14,36.7-33.14,28,2,28.81-18.95S293,275.7,293,275.7s-1.18-52.09-35.12-51.69S219.17,272.94,219.17,272.94Z" style="fill:#ebebeb"></path><polygon points="242.26 457.53 249.36 302.54 256.46 457.53 242.26 457.53" style="fill:#a6a6a6"></polygon><polygon points="246.31 358.92 225.47 317.3 252.4 355.26 246.31 358.92" style="fill:#a6a6a6"></polygon><path d="M566.47,80.2c7.19,0,128.17.8,135.77.56.55,0,.84-.82.3-1.09-4.8-2.37-10.23-1.9-15.21-3.58-2.93-1-4.73-2.9-6.77-5.1a14,14,0,0,0-6.29-4.11,13.31,13.31,0,0,0-6.86-.21c-2.45.58-4.58,2-6.93,2.88-5.81,2.19-11.45.1-15.6-4.2-3.43-3.54-6.79-6.89-11.44-8.79a15.17,15.17,0,0,0-12.12-.17c-4.44,2-7.49,6-11.65,8.48-4.95,2.89-10.85,2.21-16.31,3.08s-9.65,5.47-14.44,8.11a10.11,10.11,0,0,1-5.21,1.62c-1.07,0-2.12-.32-3.18-.45-1.65-.2-3.21-.16-4.32,1.22C565.94,78.78,566,80.2,566.47,80.2Z" style="fill:#ebebeb"></path><path d="M52.78,59.42c5.25,0,93.57.58,99.13.41.39,0,.61-.6.21-.8-3.5-1.73-7.47-1.38-11.1-2.61-2.14-.72-3.46-2.12-4.94-3.72a10.2,10.2,0,0,0-4.6-3,9.64,9.64,0,0,0-5-.16,42.82,42.82,0,0,0-5.06,2.1c-4.24,1.6-8.37.08-11.4-3.06-2.49-2.59-5-5-8.35-6.42A11.12,11.12,0,0,0,92.82,42c-3.24,1.47-5.46,4.42-8.5,6.2-3.61,2.11-7.92,1.61-11.91,2.25s-7,4-10.54,5.92a7.49,7.49,0,0,1-3.81,1.18,23.13,23.13,0,0,1-2.32-.33,3.17,3.17,0,0,0-3.15.89C52.39,58.39,52.43,59.42,52.78,59.42Z" style="fill:#ebebeb"></path><path d="M425.22,136.61c5.25,0,93.58.58,99.13.4.4,0,.61-.6.21-.79-3.49-1.74-7.46-1.39-11.1-2.61-2.14-.72-3.45-2.12-4.94-3.73a10.2,10.2,0,0,0-4.6-3,9.74,9.74,0,0,0-5-.15c-1.79.42-3.35,1.45-5.06,2.1-4.24,1.6-8.36.08-11.39-3.06-2.5-2.59-5-5-8.36-6.43a11.05,11.05,0,0,0-8.84-.12c-3.24,1.47-5.47,4.42-8.51,6.19-3.61,2.11-7.92,1.61-11.91,2.25s-7,4-10.53,5.92a7.36,7.36,0,0,1-3.81,1.18c-.78,0-1.55-.23-2.32-.32-1.21-.15-2.35-.12-3.16.89C424.84,135.57,424.88,136.61,425.22,136.61Z" style="fill:#ebebeb"></path><path d="M253.38,87.57c5.25,0,93.58.59,99.13.41.4,0,.61-.6.22-.8-3.5-1.73-7.47-1.38-11.11-2.61-2.14-.72-3.45-2.12-4.94-3.72a10.22,10.22,0,0,0-4.59-3,9.68,9.68,0,0,0-5-.16,42.82,42.82,0,0,0-5.06,2.1c-4.24,1.6-8.36.08-11.39-3.06-2.5-2.59-5-5-8.36-6.42a11.05,11.05,0,0,0-8.84-.12c-3.24,1.46-5.47,4.42-8.51,6.19C281.31,78.49,277,78,273,78.63s-7,4-10.53,5.92a7.55,7.55,0,0,1-3.81,1.18,22.72,22.72,0,0,1-2.32-.33,3.18,3.18,0,0,0-3.16.89C253,86.54,253,87.57,253.38,87.57Z" style="fill:#ebebeb"></path><path d="M386.34,264c5.25,0,93.58.58,99.13.41.4,0,.61-.6.22-.8-3.5-1.73-7.47-1.38-11.11-2.61-2.14-.72-3.45-2.12-4.94-3.72a10.24,10.24,0,0,0-4.59-3,9.79,9.79,0,0,0-5-.15c-1.79.43-3.34,1.45-5.05,2.1-4.25,1.6-8.37.08-11.4-3.06-2.5-2.59-5-5-8.35-6.43a11.12,11.12,0,0,0-8.85-.12c-3.24,1.47-5.46,4.42-8.51,6.2-3.6,2.11-7.92,1.61-11.9,2.24s-7.05,4-10.54,5.93a7.52,7.52,0,0,1-3.81,1.18,22.72,22.72,0,0,1-2.32-.33,3.19,3.19,0,0,0-3.16.89C386,262.93,386,264,386.34,264Z" style="fill:#ebebeb"></path><path d="M99.74,113.29c.1.3,139.21,0,137.46,0-.8,0,1.21-1.2.43-1.58-4.53-2.25-9.48-2.31-14.41-2.77a22.26,22.26,0,0,1-8.43-2c-2.62-1.37-4.25-3.76-6.11-6a26.18,26.18,0,0,0-23.76-9c-9.89,1.55-17.69,9.09-27.6,10.47-5.95.84-11.58-1.47-17.39-2.28a21.36,21.36,0,0,0-13.07,2.39c-3.14,1.56-6,2.87-9.58,3.11-2.73.19-5.46-.12-8.19-.15a18.38,18.38,0,0,0-12,4.82C96.6,110.69,95.2,113.29,99.74,113.29Z" style="fill:#ebebeb"></path><path d="M504.71,164.81c.1.29,139.21,0,137.46,0-.8,0,1.21-1.2.43-1.59-4.53-2.25-9.48-2.31-14.41-2.76a22.26,22.26,0,0,1-8.43-2c-2.62-1.38-4.25-3.76-6.11-6a26.13,26.13,0,0,0-23.76-9c-9.89,1.55-17.69,9.08-27.6,10.47-5.95.83-11.58-1.47-17.39-2.28A21.29,21.29,0,0,0,531.83,154c-3.14,1.56-6,2.87-9.58,3.11-2.73.2-5.46-.12-8.19-.14a18.36,18.36,0,0,0-12,4.81C501.57,162.2,500.17,164.81,504.71,164.81Z" style="fill:#ebebeb"></path><path d="M607.31,107.64a20.1,20.1,0,0,1-8.26,2.29,20.13,20.13,0,0,1-3.43-7.84c-.76-3.7,1.37-7.91,4.75-7.43,3.74.52,3,6.18,3,6.18s4-4.16,6.7-1.57C612.55,101.62,610.66,105.9,607.31,107.64Z" style="fill:#ebebeb"></path><path d="M252,129.94a20,20,0,0,1-8.25,2.29,20.22,20.22,0,0,1-3.43-7.84c-.76-3.7,1.36-7.92,4.74-7.44,3.74.53,3,6.18,3,6.18s4-4.15,6.7-1.57C257.24,123.91,255.34,128.19,252,129.94Z" style="fill:#ebebeb"></path><path d="M491.44,69.4a12.59,12.59,0,0,1-2.54,4.71,12.5,12.5,0,0,1-5-1.85c-2-1.25-3-4-1.3-5.35,1.85-1.45,4.09,1.32,4.09,1.32s-.16-3.58,2.18-3.7C491,64.43,492.1,67.14,491.44,69.4Z" style="fill:#ebebeb"></path><path d="M597.72,130.75A33.06,33.06,0,0,1,587.08,140a33.06,33.06,0,0,1-10.64-9.23c-3.75-5-3.56-12.72,1.8-14.4,5.92-1.86,8.84,7.06,8.84,7.06s2.95-9,8.84-7.06C601.26,118.09,601.47,125.79,597.72,130.75Z" style="fill:#ebebeb"></path><path d="M148.5,82.64A12.59,12.59,0,0,1,146,87.35a12.5,12.5,0,0,1-5-1.85c-2-1.25-3-4-1.3-5.35,1.85-1.45,4.08,1.32,4.08,1.32s-.15-3.58,2.19-3.69C148.05,77.68,149.16,80.38,148.5,82.64Z" style="fill:#ebebeb"></path><path d="M173.85,196.08a33,33,0,0,1-10.65,9.23,33.06,33.06,0,0,1-10.64-9.23c-3.74-5-3.56-12.72,1.8-14.4,5.93-1.86,8.84,7.06,8.84,7.06s3-9,8.85-7.06C177.39,183.42,177.59,191.12,173.85,196.08Z" style="fill:#ebebeb"></path></g><g id="freepik--Plants--inject-81"><path d="M265.93,457.6h-57s.13-8.48,5.73-10.74a7.64,7.64,0,0,1,8.94,2.15s2.28-15.6,12.72-15.6,15.44,13.45,15.44,13.45,2.34-4.06,8.13-3.31S265.93,457.6,265.93,457.6Z" style="fill:#455a64"></path><path d="M583.4,457.6s-1.75-8.15-5.24-9.41-5.61,2.4-5.61,2.4-.82-7.79-5.77-10.12-8.66,2.45-8.66,2.45-3.8-9.89-10.58-9.89-10.2,14.46-10.2,14.46-4-4.31-8.11-1.87-4.1,12-4.1,12Z" style="fill:#37474f"></path><path d="M219.15,457.6H166.6s1.73-7.41,5.22-7.94,5.1,2.92,5.1,2.92-.16-10.34,6.35-12.1,12,7.37,12,7.37,4.08-5.2,9.64-4.87,7,8.93,7,8.93S216.92,448.93,219.15,457.6Z" style="fill:#37474f"></path><path d="M528.9,457.6H496.61s.07-4.81,3.25-6.08a4.32,4.32,0,0,1,5.06,1.21s1.29-8.84,7.21-8.84,8.74,7.63,8.74,7.63a4.54,4.54,0,0,1,4.61-1.88C528.77,450.07,528.9,457.6,528.9,457.6Z" style="fill:#455a64"></path></g><g id="freepik--Floor--inject-81"><rect x="71.7" y="457.6" width="606.61" height="5.38" style="fill:#a6a6a6"></rect><path d="M102.91,457.6a7.3,7.3,0,0,1,0,5.38,7.25,7.25,0,0,1,0-5.38Z" style="fill:#263238"></path><path d="M139.19,457.6a7.3,7.3,0,0,1,0,5.38,7.25,7.25,0,0,1,0-5.38Z" style="fill:#263238"></path><path d="M175.46,457.6a7.25,7.25,0,0,1,0,5.38,7.35,7.35,0,0,1,0-5.38Z" style="fill:#263238"></path><path d="M211.74,457.6a7.25,7.25,0,0,1,0,5.38,7.3,7.3,0,0,1,0-5.38Z" style="fill:#263238"></path><path d="M248,457.6a7.25,7.25,0,0,1,0,5.38,7.3,7.3,0,0,1,0-5.38Z" style="fill:#263238"></path><path d="M284.3,457.6a7.25,7.25,0,0,1,0,5.38,7.3,7.3,0,0,1,0-5.38Z" style="fill:#263238"></path><path d="M320.58,457.6a7.25,7.25,0,0,1,0,5.38,7.3,7.3,0,0,1,0-5.38Z" style="fill:#263238"></path><path d="M356.86,457.6a7.3,7.3,0,0,1,0,5.38,7.3,7.3,0,0,1,0-5.38Z" style="fill:#263238"></path><path d="M393.14,457.6a7.3,7.3,0,0,1,0,5.38,7.3,7.3,0,0,1,0-5.38Z" style="fill:#263238"></path><path d="M429.42,457.6a7.3,7.3,0,0,1,0,5.38,7.25,7.25,0,0,1,0-5.38Z" style="fill:#263238"></path><path d="M465.7,457.6a7.3,7.3,0,0,1,0,5.38,7.25,7.25,0,0,1,0-5.38Z" style="fill:#263238"></path><path d="M502,457.6a7.3,7.3,0,0,1,0,5.38,7.25,7.25,0,0,1,0-5.38Z" style="fill:#263238"></path><path d="M538.26,457.6a7.3,7.3,0,0,1,0,5.38,7.25,7.25,0,0,1,0-5.38Z" style="fill:#263238"></path><path d="M574.54,457.6a7.35,7.35,0,0,1,0,5.38,7.25,7.25,0,0,1,0-5.38Z" style="fill:#263238"></path><path d="M610.81,457.6a7.25,7.25,0,0,1,0,5.38,7.3,7.3,0,0,1,0-5.38Z" style="fill:#263238"></path><path d="M647.09,457.6a7.25,7.25,0,0,1,0,5.38,7.3,7.3,0,0,1,0-5.38Z" style="fill:#263238"></path><path d="M70.54,463c195.06-.61,413.86-.61,608.92,0-195.06.62-413.86.61-608.92,0Z" style="fill:#263238"></path></g><g id="freepik--speech-bubble--inject-81"><path d="M448.62,65.27a25.59,25.59,0,0,1-40.85,20.54L395.23,89l5.22-11.68a25.6,25.6,0,1,1,48.17-12.07Z" style="fill:#fff"></path><path d="M448.62,65.27c-.13,21.64-24.81,33-40.76,20.89l-12.52,3.28-.88.23.37-.83L400,77.14l0,.43c-5.89-10.48-3-24.64,6.27-32.16,16.83-13.87,42.26-1.94,42.32,19.86Zm0,0c.08-16.36-15.93-28.86-31.75-24.54a25.29,25.29,0,0,0-16,36.38l.12.21-.1.22L395.63,89.2l-.51-.61,12.56-3.12c17.12,12.37,40.52,1.16,40.94-20.2Z" style="fill:#263238"></path><path d="M436.44,71A41.56,41.56,0,0,1,423.1,82.56,41.59,41.59,0,0,1,409.77,71c-4.7-6.21-4.46-15.94,2.25-18,7.43-2.33,11.08,8.85,11.08,8.85s3.7-11.25,11.08-8.85C440.88,55.12,441.13,64.78,436.44,71Z" style="fill:#17A34A"></path><polygon points="417.86 77.65 415.84 69.22 414.52 72.2 406.34 72.2 406.34 71.25 413.9 71.25 416.11 66.28 417.69 72.85 419.92 59.23 421.89 70 423.44 65.5 425.9 72.87 426.44 71.24 439.88 71.24 439.88 72.19 427.13 72.19 425.9 75.87 423.43 68.46 421.6 73.73 419.97 64.8 417.86 77.65" style="fill:#fff"></polygon></g><g id="freepik--character-1--inject-81"><path d="M548.89,143.76c10.15-9.31,27.32-32.08,27.32-39.7,0-6.06-12.91-21.26-21.7-31.71C552.13,69.53,537.29,86,539.9,88.93c5.47,6.18,12.6,15.3,12.94,17.06.7,3.66-9.5,20.51-13,29.16C534.28,148.63,542,150.07,548.89,143.76Z" style="fill: rgb(247, 169, 160);"></path><path d="M533.64,82.14c2.08,4.68,8.94,9.72,8.94,9.72l13.92-17.1s-5.43-7.15-6.63-12.26c-.29-1.26-.82-7.55-2.37-13.91C545.74,41.36,543,34,542.23,33.51c-1.43-1-3.69.83-3.65,6s1.83,15.16,1.78,15.79a5.46,5.46,0,0,1-.17.61h0c-.16.23-6.81,3.26-7.46,6.49S533.08,81.39,533.64,82.14Z" style="fill: rgb(247, 169, 160);"></path><path d="M544.19,64.52s2.6-12.26,1.58-14.66-4.93-17.74-6.35-18.73-3.69.84-3.66,6,1.84,15.16,1.79,15.79-4.06,10.91-4.14,12S544.19,64.52,544.19,64.52Z" style="fill: rgb(247, 169, 160);"></path><path d="M546.63,57.82c0-1.37-.09-2.74-.16-4.11-.05-.69-.1-1.37-.17-2.06,0-.34-.07-.68-.11-1,0-.17-.06-.35-.09-.52a3.71,3.71,0,0,0-.14-.53c-.77-2.61-1.56-5.25-2.37-7.86s-1.62-5.23-2.51-7.85a9,9,0,0,0-1-1.88,3.75,3.75,0,0,0-.73-.81,1.73,1.73,0,0,0-1-.44,1.37,1.37,0,0,0-1,.43,3.08,3.08,0,0,0-.62.87,7.39,7.39,0,0,0-.62,2,9.46,9.46,0,0,1,.79-1.88,3.06,3.06,0,0,1,.63-.75,1.1,1.1,0,0,1,.83-.29,2.19,2.19,0,0,1,1.4,1.15,8.28,8.28,0,0,1,.81,1.82c.76,2.61,1.54,5.25,2.35,7.87s1.63,5.23,2.54,7.83a10,10,0,0,1,.41,2c.1.67.18,1.35.27,2Z" style="fill:#263238"></path><path d="M541.88,66.15s2.79-13.44,1.77-15.84-4.93-17.75-6.34-18.74-3.69.84-3.66,6,1.83,15.16,1.78,15.79-2.89,11-3,12S541.88,66.15,541.88,66.15Z" style="fill: rgb(247, 169, 160);"></path><path d="M545.07,59.86c-.1-1.68-.26-3.35-.42-5-.1-.84-.21-1.67-.33-2.51-.06-.42-.12-.84-.2-1.25a9.52,9.52,0,0,0-.33-1.25c-1-3.21-2-6.43-3-9.63l-1.56-4.8-.41-1.19a9.44,9.44,0,0,0-.47-1.21,4.81,4.81,0,0,0-.72-1.13,2.26,2.26,0,0,0-1.18-.79,1.3,1.3,0,0,0-.78.06,1.73,1.73,0,0,0-.59.43,3.62,3.62,0,0,0-.71,1.14,10.93,10.93,0,0,0-.68,2.47,14.82,14.82,0,0,0,0,5.06,15.74,15.74,0,0,1,.3-5,11.53,11.53,0,0,1,.76-2.35,3.39,3.39,0,0,1,.64-1,.93.93,0,0,1,.9-.3,1.79,1.79,0,0,1,.84.63,5.2,5.2,0,0,1,.61,1c.31.72.53,1.55.79,2.35l1.53,4.8c1,3.2,2.06,6.4,3.16,9.59a7.27,7.27,0,0,1,.36,1.18c.09.4.18.81.26,1.22.15.82.29,1.65.42,2.48Z" style="fill:#263238"></path><path d="M542.32,66.14S542,53.9,541.06,51.66s-3-12.87-4.28-13.79-3.43.78-3.4,5.56.08,10.47,0,11.06-.87,9.88-.95,10.87S542.32,66.14,542.32,66.14Z" style="fill: rgb(247, 169, 160);"></path><path d="M543.25,62.85c-.19-2.16-.42-4.31-.64-6.47-.11-1.07-.22-2.15-.35-3.23l-.1-.81a5.66,5.66,0,0,0-.16-.82c-.12-.53-.27-1.05-.42-1.58-.61-2.08-1.27-4.15-2-6.19-.36-1-.74-2-1.13-3.06-.2-.51-.41-1-.63-1.51a8.9,8.9,0,0,0-.76-1.51,1.25,1.25,0,0,0-1.88-.33A4,4,0,0,0,534,38.68a7.08,7.08,0,0,0-.92,3.26c-.05,2.18-.05,4.34-.05,6.51s0,4.36,0,6.48c0,1.07-.11,2.16-.18,3.24s-.1,2.16-.12,3.25c.38-2.14.67-4.28.91-6.45l0-6.51c0-2.17,0-4.34.1-6.49a6.48,6.48,0,0,1,.81-2.94,3.44,3.44,0,0,1,.93-1.12.59.59,0,0,1,.94.15,9.49,9.49,0,0,1,.7,1.39c.22.48.43,1,.63,1.48.4,1,.78,2,1.15,3,.73,2,1.47,4.07,2.12,6.13.16.51.32,1,.46,1.54a15.28,15.28,0,0,1,.28,1.58l.46,3.21Z" style="fill:#263238"></path><path d="M548.89,143.76a122.83,122.83,0,0,0,12-13.23l-8.46-21.83c-2,6.17-9.64,19.2-12.61,26.45C534.28,148.63,542,150.07,548.89,143.76Z" style="opacity:0.1"></path><path d="M467.73,456.91c2.52.79,64.55,1.07,67.23-.73,1-.67,1.4-11.12,1.48-23.77V432c0-2.61.23-45.38.23-45.38l-45.28-.08-1.2,46,0,.78s-17.5,11-20.24,13.26S465.21,456.14,467.73,456.91Z" style="fill: rgb(247, 169, 160);"></path><path d="M467.73,456.92c2.53.78,64.55,1.06,67.24-.74,1-.66,1.4-11.12,1.47-23.78V432c0-.52,0-2.63,0-5.67H490.34l-.16,6.23,0,.79s-17.49,11-20.24,13.26S465.2,456.14,467.73,456.92Z" style="fill:#ebebeb"></path><path d="M467.73,456.92c2.53.78,64.55,1.06,67.24-.74,1-.65,1.39-10.93,1.47-23.43H490.19l0,.6s-17.49,11-20.24,13.26S465.2,456.14,467.73,456.92Z" style="fill:#17A34A"></path><path d="M470.31,455c10.34-.49,52.13-1.41,62.4-1,.08,0,.08.06,0,.07-10.25.74-52,1.28-62.4,1.15C470.09,455.14,470.09,455,470.31,455Z" style="fill:#263238"></path><path d="M473.13,444.13a12.72,12.72,0,0,1,9.25,1.72c2.1,1.45,4,3.64,4.38,6.32,0,.08-.16.11-.18,0-1.65-4.89-7.57-8.46-13.42-7.91A.08.08,0,1,1,473.13,444.13Z" style="fill:#263238"></path><path d="M492.49,434.6c4.53-.68,10,.2,13.35,3.53.13.13-.06.31-.2.26a63.32,63.32,0,0,0-13.15-3.22A.29.29,0,0,1,492.49,434.6Z" style="fill:#263238"></path><path d="M489.17,436.45c4.53-.68,10,.2,13.35,3.53.13.12-.06.31-.2.25A63.77,63.77,0,0,0,489.17,437,.29.29,0,0,1,489.17,436.45Z" style="fill:#263238"></path><path d="M485.85,438.3c4.53-.69,10,.2,13.35,3.52.13.13-.05.31-.2.26a63.62,63.62,0,0,0-13.15-3.21A.29.29,0,0,1,485.85,438.3Z" style="fill:#263238"></path><path d="M482.53,440.15c4.54-.69,10,.19,13.35,3.52.13.13-.05.31-.2.26a63,63,0,0,0-13.15-3.21A.29.29,0,0,1,482.53,440.15Z" style="fill:#263238"></path><path d="M527.17,443c5.15-.09,5.29,7.9.14,8S522,443.07,527.17,443Z" style="fill:#263238"></path><path d="M487.19,429.76a24.81,24.81,0,0,0,6.9,4.4c.18.08.35.17.53.24,1,.49,2,1,3,1.46a.46.46,0,0,0,.36,0,.58.58,0,0,0,.4-.5.12.12,0,0,0,.13-.14c0-.15-.07-.3-.1-.47l0-.15s0,0,0,0c-.05-.18-.11-.38-.15-.57-.11-.43-.25-.88-.41-1.32a24.47,24.47,0,0,0-5-8.54c-1.69-1.77-4.84-3.25-6.89-1S485.51,428.11,487.19,429.76Zm-.72-3.72c-.23-5,4.75-1.82,5.95-.47a27.48,27.48,0,0,1,2.07,2.84,42.63,42.63,0,0,1,2.48,4.42c.28.57.57,1.11.86,1.68l0,0,.12.26-.26-.15-.29-.17c-.7-.38-1.39-.76-2.11-1.13s-1.67-.86-2.5-1.31C490.77,431,486.6,428.79,486.47,426Z" style="fill:#263238"></path><path d="M498,435.88h0c1.62,0,3.29.14,4.95.19a23.05,23.05,0,0,0,7.09-.69c2.17-.65,4.73-2.36,4.27-4.94a2,2,0,0,0-.06-.32c-.76-2.91-4.23-3.09-6.55-2.3a24.1,24.1,0,0,0-7.79,4.61,18,18,0,0,0-1.66,1.61,2.71,2.71,0,0,0-.41.47s0,0,0,0a.2.2,0,0,0-.09.12,1.55,1.55,0,0,0-.25.26.14.14,0,0,0,0,.2A.55.55,0,0,0,498,435.88Zm1.13-1.13-.67,0a1.22,1.22,0,0,0-.27,0c.07-.06.16-.1.23-.16h0c1.2-.82,2.35-1.67,3.56-2.46.74-.5,1.48-1,2.26-1.39a25.59,25.59,0,0,1,3.17-1.52c1.41-.54,5.71-1,5.66,1.38a3.64,3.64,0,0,1-.61,1.79c-1.41,2.38-6.11,2.34-8.44,2.35C502.35,434.77,500.73,434.72,499.09,434.75Z" style="fill:#263238"></path><path d="M555.26,194.85s-6.6,40.24-7,41.54c0,0-2.45,1.16-6.88,3.21l-4.51,181.49-47.22-.22s-2.9-145.61,4.3-201.78c.79-6.14,5-24.24,5-24.24Z" style="fill:#37474f"></path><path d="M523.42,421h-.69a50.08,50.08,0,0,0,.59-5.08c.1-2.56-.4-5.61-3-6.75a7,7,0,0,0-6.48.9c-3.52,2.37-4.5,6.82-5.53,10.87h-.69c.88-3.42,1.67-6.91,3.94-9.7s6.45-4.31,9.66-2.4C525.27,411.28,524,417.11,523.42,421Zm7.73-15c-2.21,4.56.31,9.56,2,13.84.15.4.3.81.44,1.22h.72c-.11-.34-.22-.67-.34-1-1.71-4.6-5-10.76-1.2-15.24a7.5,7.5,0,0,1,4.56-2.45l0-.67A8,8,0,0,0,531.15,406Zm-29.76-8c-4.13-.5-8,1.91-12.1,1.89,0,.21,0,.43,0,.64a13.76,13.76,0,0,0,3-.28c3.66-.74,10.83-3.86,12.78,1.24.87,2.28-.46,4.81-2,6.46-1.72,1.86-4.05,2.78-6.36,3.68-2.64,1-5.27,2.13-7.19,4,0,.32,0,.63,0,.92a15.06,15.06,0,0,1,6.08-3.76c4-1.58,8.24-3.09,9.95-7.43C506.86,402.08,505.07,398.49,501.39,398Zm23-2.55c-10.45-1.91-16.31-12.35-25.37-17a17.6,17.6,0,0,0-10-2.06c0,.21,0,.42,0,.63,8.49-1.33,16.64,7.09,22.62,12.2,3.55,3,7.52,5.86,12.17,6.8a19.87,19.87,0,0,0,12.62-1.7c.34-.17.67-.34,1-.53l0-.82A19.19,19.19,0,0,1,524.42,395.49Zm-10.88-33a11.91,11.91,0,0,0-5.48,8.9,7.23,7.23,0,0,0,5.47,7.82c4.27,1,8.77-1.16,12.3-3.35s8-5.08,12.23-4.55v-.65l-.49-.05c-5.2-.34-9.53,3.3-13.82,5.65-3.92,2.15-10.08,4.23-13.54.14-2.86-3.39-1.14-8.59,1.56-11.5,3.58-3.86,9.43-4.36,14.38-4.62,4.09-.22,8.26-.26,12.21-1.46l0-.77a41,41,0,0,1-10.53,1.39C523,359.63,517.79,359.85,513.54,362.47Zm-.65-30.85c1.88-3.19,2.12-7.32-.56-10.16-2.48-2.62-6.46-3-9.83-2.39-4.51.75-8.16,3.37-12,5.65-.43.26-.88.51-1.33.76,0,.28,0,.57,0,.85.84-.45,1.65-.93,2.45-1.41,4-2.38,7.77-5,12.51-5.31,4.32-.32,9.22,1.61,9.52,6.56.3,5.15-4.12,9.09-8.58,10.64-5,1.74-10.37,1.56-15.47,2.81l-.52.14v.76c4.12-1.13,8.45-1.24,12.63-2.07C506.15,337.57,510.48,335.69,512.89,331.62Zm8.32,6.7c-8.12,6.27-12.43,16.46-21.24,21.95A18.07,18.07,0,0,1,489,363.1v.66a20.31,20.31,0,0,0,12.38-3.58c8.53-5.94,12.79-16.19,21.34-22.1a18.33,18.33,0,0,1,14.7-3.12,14.51,14.51,0,0,1,1.5.46l0-.75a16.61,16.61,0,0,0-4.74-.87A20.16,20.16,0,0,0,521.21,338.32ZM533,296.69c-2.48,3.88-.23,8.38,1.58,12,1.22,2.43,2.45,4.91,2.51,7.68a6.56,6.56,0,0,1-3.28,6.21c-3.82,1.89-8.84-.53-10.92-3.92-2.91-4.73-2.19-10.73-1.77-16,.37-4.74.56-9.93-1.86-14.22a10.17,10.17,0,0,0-8.57-5.13,6.61,6.61,0,0,0-7,5.79c-.55,4.33,2,8.38,1.7,12.7a7.56,7.56,0,0,1-9.81,6.36c-2.32-.82-3.87-2.95-5.93-4.2l-.21-.12c0,.31,0,.61,0,.91,1.55,1,2.85,2.4,4.44,3.4a8.28,8.28,0,0,0,9.86-1.21c3.1-2.87,2.59-7,1.69-10.73-.95-4-2.43-10,2.74-11.77,4-1.37,8.51.89,10.49,4.4,2.57,4.55,2.05,10.12,1.65,15.12s-.71,10.29,1.81,14.75a10.58,10.58,0,0,0,8.82,5.23,6.81,6.81,0,0,0,6.9-6.42c.5-5-2.92-9-4.48-13.48-.82-2.36-1-5,.49-7.18a7.65,7.65,0,0,1,4.81-2.9,10.34,10.34,0,0,1,1.33-.18l0-.78A8.75,8.75,0,0,0,533,296.69Zm-15.48-53.38a18.28,18.28,0,0,0,4.75-12.75c-.41-6.76-6.54-14.92-14-11.58-5.58,2.48-7.29,9.69-9.52,14.77-1.22,2.76-2.67,5.71-5.17,7.54a7.83,7.83,0,0,1-1.83,1l-.06,1a11.23,11.23,0,0,0,5.15-4.23c3.66-5.21,4.38-12.16,8.63-17a8.07,8.07,0,0,1,9.43-2.37c4,1.81,6.31,6.41,6.65,10.58.43,5.18-2.16,10.47-5.91,13.93s-8.38,5.22-13,6.83A94.09,94.09,0,0,0,491,255.54c0,.3,0,.61-.05.91,4.87-2.52,10.46-4,15.48-6C510.54,248.82,514.58,246.68,517.56,243.31Zm-14-45.3c.61-1,1.27-2.1,2-3.16h-.93c-1.58,2.36-2.92,4.87-4.63,7.16a22.88,22.88,0,0,1-3.54,3.87h0c-.08.38-.16.76-.25,1.14C499.36,204.78,501.6,201.29,503.54,198Zm19.79-2.66a4.33,4.33,0,0,0-.08-.5h-.86a11.55,11.55,0,0,1-3.73,10.55c-3.61,3.38-8.54,5-13.22,6.23-3.61,1-7.28,1.83-10.81,3.08-.06.34-.12.68-.18,1,4.52-1.64,9.25-2.57,13.85-4,4.29-1.32,8.68-3.16,11.79-6.52A12.16,12.16,0,0,0,523.33,195.35Zm.2,82.07c-1.77-5.14,1.55-10.25.8-15.46-.55-3.78-3.33-6.91-7.41-6.16s-7,4.44-9,7.86c-3.77,6.37-6.47,16.46-14.78,18.23a9.9,9.9,0,0,1-3.21.15c0,.26,0,.53,0,.8,8,.85,12.48-6.7,15.62-12.93,1.86-3.69,3.66-7.81,6.71-10.68,1.81-1.69,4.41-3.19,7-2.65s3.95,3,4.31,5.46c.76,5.15-2.45,10.13-.87,15.27a12.51,12.51,0,0,0,8.58,8.12,14.37,14.37,0,0,0,9-.46l0-.86a14.91,14.91,0,0,1-4.85,1C530.3,285.29,525.23,282.35,523.53,277.42Zm6.85-40.12c-2.38,3-2.42,7.13.44,9.83s6.81,3.49,10.2,5.09l0-.8c-.44-.22-.89-.42-1.35-.61-3.45-1.42-8.37-2.66-9.93-6.49a6.79,6.79,0,0,1,1.81-7.2c2-2.1,5-2.92,7.86-3.16,3.08-.26,6.32.12,9.36-.53.05-.26.09-.52.14-.81a27.26,27.26,0,0,1-5.81.47C538.56,233.11,533.44,233.43,530.38,237.3ZM541,219.06a13.45,13.45,0,0,1-6.79-2.88,12.64,12.64,0,0,1-3.39-5.09,15.8,15.8,0,0,1,.44-11.93,17.81,17.81,0,0,1,2.9-4.31h-1.08a16.43,16.43,0,0,0-4,9.4,15.85,15.85,0,0,0,2.84,10.62c2.73,3.67,6.74,4.68,11.08,5.29,2.58.36,5.23.7,7.46,2.15l.24.17c.05-.28.1-.56.14-.85C548,219.87,544.33,219.64,541,219.06Z" style="fill:#263238"></path><path d="M525.53,310.2c-.74-2.35.74-71,2.42-73.46.3-.47,14.66,2.28,30.54,2,3.22-.07,35.06-1.93,35.06-1.93l-.83,42.43-43.47,1s-12,25.32-14.12,27.88S526.25,312.55,525.53,310.2Z" style="fill: rgb(247, 169, 160);"></path><path d="M525.52,310.2c-.72-2.36.75-70.95,2.42-73.46.29-.45,14.65.59,29.85,1.83v42.62l-8.54-1s-12,25.31-14.12,27.88S526.25,312.55,525.52,310.2Z" style="fill:#ebebeb"></path><path d="M525.33,310.65c-.75-2.41.16-71.56,1.86-74.14.64-1,11.67.27,23.3,1.44l-1,42.84s-12.22,25.06-14.39,27.68S526.08,313.05,525.33,310.65Z" style="fill:#17A34A"></path><path d="M528.08,309.72c.51-11.44,1.51-57.65,1.15-69,0-.09-.06-.09-.07,0-.76,11.34-1.38,57.55-1.27,69C527.89,310,528.07,310,528.08,309.72Z" style="fill:#263238"></path><path d="M537.7,304.13a9.2,9.2,0,0,0-2.66-6.91,8.89,8.89,0,0,0-6.06-2.68c-.07,0-.07.12,0,.13a10.64,10.64,0,0,1,8.57,9.46A.08.08,0,0,0,537.7,304.13Z" style="fill:#263238"></path><path d="M548.32,284.35c.16-4.58-1.35-9.92-5-12.85-.15-.11-.3.09-.24.23a63.66,63.66,0,0,1,4.71,12.69A.29.29,0,0,0,548.32,284.35Z" style="fill:#263238"></path><path d="M546.87,287.86c.15-4.58-1.35-9.92-5-12.85-.15-.11-.31.09-.24.23a63.66,63.66,0,0,1,4.71,12.69A.29.29,0,0,0,546.87,287.86Z" style="fill:#263238"></path><path d="M545.42,291.37c.15-4.58-1.36-9.92-5-12.85-.14-.11-.3.09-.23.23a63.66,63.66,0,0,1,4.71,12.69A.29.29,0,0,0,545.42,291.37Z" style="fill:#263238"></path><path d="M544,294.88c.16-4.58-1.35-9.92-5-12.85-.14-.11-.3.09-.23.23A63.66,63.66,0,0,1,543.4,295,.28.28,0,0,0,544,294.88Z" style="fill:#263238"></path><path d="M540.05,243.85c.09-5.14-7.9-5.29-8-.14S540,249,540.05,243.85Z" style="fill:#263238"></path><path d="M560.45,289.57c2-2.29.14-5.26-1.81-6.72a24.11,24.11,0,0,0-9.06-4c-.46-.12-.92-.2-1.36-.27a5.07,5.07,0,0,1-.58-.08h-.17l-.48-.05a.11.11,0,0,0-.12.15.55.55,0,0,0-.45.45.41.41,0,0,0,.06.35c.6.91,1.2,1.87,1.8,2.83a4.3,4.3,0,0,0,.3.49,24.5,24.5,0,0,0,5.16,6.35C555.58,290.54,558.58,291.72,560.45,289.57Zm-9.62-5.83c-.54-.77-1.07-1.56-1.59-2.33s-.91-1.32-1.37-2c-.06-.09-.14-.18-.2-.26l-.18-.25.28.1h0c.59.23,1.17.45,1.77.65a45.3,45.3,0,0,1,4.67,2,27,27,0,0,1,3.06,1.72c1.48,1,5.22,5.62.22,6C554.78,289.54,552.15,285.64,550.83,283.74Z" style="fill:#263238"></path><path d="M547.24,279.43a.13.13,0,0,0,.2,0,1.84,1.84,0,0,0,.23-.27.23.23,0,0,0,.11-.11s0,0,0,0a3.08,3.08,0,0,0,.42-.47,15.54,15.54,0,0,0,1.4-1.83,24.06,24.06,0,0,0,3.68-8.27c.52-2.4-.06-5.82-3-6.24a1.77,1.77,0,0,0-.32,0c-2.62-.16-4,2.58-4.42,4.81a23,23,0,0,0,.14,7.12c.24,1.65.53,3.29.76,4.9v0A.54.54,0,0,0,547.24,279.43Zm-.4-6.48c-.26-2.32-.84-7,1.35-8.65a3.68,3.68,0,0,1,1.71-.82c2.34-.32,2.4,4,2,5.46a26.2,26.2,0,0,1-1.15,3.33c-.33.82-.71,1.61-1.12,2.4-.64,1.3-1.35,2.54-2,3.82h0c0,.08-.08.17-.13.25a1.14,1.14,0,0,0,0-.26c0-.23,0-.45-.05-.68C547.25,276.19,547,274.58,546.84,273Z" style="fill:#263238"></path><path d="M526.14,194.85h31.37s2.29,8.09,4,8.75c9.06,3.56,47.5,13.94,69.76,25.72,19.16,10.14,21.91,37.8-4.93,45.31-35.26,9.86-73,9.75-73,9.75l-.47-47.47s28-3.83,54.7-3.16c0,0-28.24,8.49-58.38,3.31-2.95-.51-6.91-1.45-10.48-2.37-4.79-1.22-8.88-2.4-8.88-2.4Z" style="fill:#37474f"></path><path d="M587.59,268.28a21.43,21.43,0,0,1-1.2,6.33c-.71,2.44-1.49,4.85-2,7.33,0,.17-.07.34-.11.51l-.81.08c.7-3.66,2-7.2,2.94-10.81.54-2.19,1-5.19-.79-7-2.09-2.13-5.65-.87-7.57.84-5.1,4.54-4.33,11.72-5.58,18l-.79,0c.78-3.57.72-7.42,1.58-10.91.91-3.67,3-7.62,6.62-9.18a5.94,5.94,0,0,1,5.83.3A5.63,5.63,0,0,1,587.59,268.28Zm-34.15-44.23c-3-4.06-8-4.21-12.47-5a13.45,13.45,0,0,1-6.79-2.88,12.64,12.64,0,0,1-3.39-5.09,15.8,15.8,0,0,1,.44-11.93,17.81,17.81,0,0,1,2.9-4.31h-1.08a16.43,16.43,0,0,0-4,9.4,15.85,15.85,0,0,0,2.84,10.62c2.73,3.67,6.74,4.68,11.08,5.29,2.58.36,5.23.7,7.46,2.15s4.08,3.84,3.3,6.51c-1.24,4.24-7.06,4.25-10.61,4.27a27.22,27.22,0,0,0-7.47.81l1.49.39a18,18,0,0,1,2.29-.33c3.88-.33,8,.37,11.69-1.28A5.59,5.59,0,0,0,553.44,224.05Zm2.86-5.57c3.28,2.78,7.56.15,10.06-2.4s4.32-5.74,6.25-8.76l-.84-.26c-1,1.61-2,3.26-3.13,4.83-2.17,3.11-6.74,8.87-11.12,6.41-1.88-1.06-2.67-3.37-2.68-5.43,0-2.62,1.41-5,2.95-7,.83-1.09,1.78-2.2,2.69-3.34h0c-.14-.23-.28-.49-.42-.76-1.67,2.13-3.59,4.14-4.83,6.52C553.59,211.45,553.34,216,556.3,218.48ZM555.61,238a12.94,12.94,0,0,1,2.13-1.49l.38-.2c4.44-2.34,9.66-2.85,14.47-4,5-1.22,10.09-2.91,14.36-5.93a21.87,21.87,0,0,0,8.43-11.59l-.76-.26a16.57,16.57,0,0,1-1.57,3.92,24.21,24.21,0,0,1-11.84,10.16c-4.91,2.16-10.17,3.15-15.38,4.29-3.34.72-7,1.68-9.88,3.68a11,11,0,0,0-1.6,1.3,11.73,11.73,0,0,0-.84.88,8.53,8.53,0,0,0-.62.83v1.72A11.89,11.89,0,0,1,555.61,238Zm51-17.17c-4.15-1.36-9.17,1.3-12.62,3.44a53.62,53.62,0,0,0-9.79,8.18c-.59.6-1.17,1.2-1.74,1.81-1.34,1.4-2.65,2.82-4,4.23s-2.41,2.56-3.65,3.81c-3.2,3.23-6.7,6.58-10.83,8.58-3.48,1.7-8.64,2.29-11-.93v1.25c2,2,5.23,2.36,8.08,1.66,4.3-1.06,7.93-4,11.15-6.9,2.62-2.37,5-5,7.46-7.55.68-.73,1.35-1.46,2-2.18s1.27-1.36,1.92-2a67.35,67.35,0,0,1,8-7.32,34.87,34.87,0,0,1,5.62-3.48c2.25-1.1,4.85-2.18,7.4-2.1a6,6,0,0,1,5.51,4.39,9,9,0,0,1-.84,7.12c-2.46,4.54-7.33,7.7-11.67,10.25-9,5.28-19.1,8.39-27.72,14.26-7.47,5.08-14.39,13-15.43,22.3a20.22,20.22,0,0,0,0,4.79h.83a20.52,20.52,0,0,1,.66-8.07c2.76-9.78,11.12-16.87,19.74-21.51,9.18-4.94,19.29-8.26,27.66-14.6,3.45-2.61,7.17-6,7.86-10.52C611.8,226.14,610.21,222,606.61,220.79ZM617,258.37a10.31,10.31,0,0,0-8.46-6.55,9.66,9.66,0,0,0-9.53,4.77c-2.23,3.77-1.7,7.83.5,11.45a44.6,44.6,0,0,1,3.92,7.18,23.67,23.67,0,0,1,1.21,4.3l.75-.13a22.81,22.81,0,0,0-1.41-5,46.13,46.13,0,0,0-3.67-6.59c-1.42-2.3-2.34-4.71-1.86-7.44a9.2,9.2,0,0,1,9.38-7.82c5,.28,8.39,4,9.12,8.8.6,3.93,0,7.94.64,11.86a10.67,10.67,0,0,0,1.16,3.38l.82-.2a14.43,14.43,0,0,1-1.48-6.21C617.89,266.27,618.37,262.12,617,258.37ZM634.66,264c-1.59-4.95-4.88-8.94-7.92-13.06s-6-9-5.21-14.34a15.72,15.72,0,0,1,5.5-9.35l-.77-.37a17.41,17.41,0,0,0-4.41,5.94,14.7,14.7,0,0,0,.4,12.43c2.19,4.64,5.83,8.35,8.57,12.65,2.39,3.76,4.58,8.7,3.83,13.29.27-.16.54-.32.8-.49A16.31,16.31,0,0,0,634.66,264Zm5.65-6.45c-2.6-4.59,1.21-9.41,4.4-12.79-.09-.27-.19-.55-.3-.82a25.87,25.87,0,0,0-3.78,4.58c-2.17,3.53-3,8.23.46,11.27a10.68,10.68,0,0,0,2.8,1.77c.12-.24.23-.47.33-.71A8.09,8.09,0,0,1,640.31,257.51Z" style="fill:#263238"></path><path d="M620.46,233.36a149.19,149.19,0,0,0-16.9-1c2.16-.47,4.36-.86,6.53-1.2.12,0,.12-.21,0-.2a41.65,41.65,0,0,0-7.56,1.4c-3.74,0-7.47.13-11.2.32-9.76.5-11.88.71-21.61,1.66-5.52.55-11.15,1.84-16.67,2.41a.48.48,0,0,0-.46.48c0,1.44.11,2.89.16,4.33a.29.29,0,0,0,.57,0c.06-1.3.15-2.6.19-3.9,9.6-.8,11.71-1.63,21.32-2.46s19.46-1.45,29.23-1.68c5.47-.13,10.92-.14,16.39,0C620.55,233.56,620.58,233.38,620.46,233.36Z" style="fill:#263238"></path><path d="M548.86,225.52A150.73,150.73,0,0,0,524.29,236c-.31.16-.14.66.19.53,8.26-3.23,16.6-6.77,24.68-10.46C549.79,225.78,549.51,225.32,548.86,225.52Z" style="fill:#263238"></path><path d="M541,229.82c0,.74-.32,5.48-.26,6.86a.28.28,0,0,0,.56,0c.26-2,.35-6.5.32-6.95C541.58,229.08,541,229.15,541,229.82Z" style="fill:#263238"></path><path d="M519.86,100.48a4.66,4.66,0,0,0-1.7.8c-2.31,1.73-2.94,4.74-3,7.45,0,2.9.6,6-.4,8.8a4.85,4.85,0,0,1-2.09,2.69,4.5,4.5,0,0,1-3.68,0c-1.25-.45-2.65-1.26-4-.83a3.74,3.74,0,0,0-2.25,2.53c-.93,2.82.7,5.8.93,8.62a15.05,15.05,0,0,1-1.93,8.68,14.68,14.68,0,0,1-6.07,5.72,14.53,14.53,0,0,1-3.9,1.34c-1.51.27-3.06.22-4.59.42a5.32,5.32,0,0,0-3.8,1.94c-.65,1-.83,5.22,2.16,9.51.21.3-.36.67-.68.44a18,18,0,0,1-1.83-1.43,20.11,20.11,0,0,1-6.72-17,20.86,20.86,0,0,1,3.49-9.52,34.05,34.05,0,0,0,3-4.82,10.41,10.41,0,0,0,.82-4.9c-.16-3.22-1.1-6.35-.7-9.59a17.58,17.58,0,0,1,3.19-8,20.89,20.89,0,0,1,15.15-8.51C507.24,94.24,520.19,100.38,519.86,100.48Z" style="fill:#263238"></path><path d="M519.66,100.53a8.27,8.27,0,0,0-3.14,2,6.78,6.78,0,0,0-1.53,3c-.61,2.46-.16,4.94.2,7.4s.58,4.78-.51,6.94a5.45,5.45,0,0,1-2,2.31,4.33,4.33,0,0,1-3.27.37c-2-.49-4.46-1.75-6.41-.3s-1.62,4.23-1.44,6.28c.43,5,1.73,11.41-2.56,15.21a18.56,18.56,0,0,1-8,3.65c-2,.47-4.55,1-5.55,3.08,0,.07.09.11.12,0,1.09-2.13,3.74-2.26,5.81-2.66a19.66,19.66,0,0,0,7-2.65,9.6,9.6,0,0,0,4.09-6,22.58,22.58,0,0,0,.16-7.65c-.14-1.3-.32-2.61-.42-3.92a8,8,0,0,1,.29-3.55,2.8,2.8,0,0,1,2.77-1.83,15,15,0,0,1,3.57.82,5.61,5.61,0,0,0,3.22.07,5.11,5.11,0,0,0,2.19-1.45,8.11,8.11,0,0,0,1.95-5.52c0-2.84-.94-5.6-.89-8.44a6.68,6.68,0,0,1,4.52-6.87A.16.16,0,0,0,519.66,100.53Z" style="fill:#263238"></path><path d="M499.15,93.22c-6.07.44-11.28,4.6-13.81,10a21,21,0,0,0-1.86,9.69c.11,3.11.64,6.27.08,9.36-.63,3.42-3,5.89-5,8.62a18.85,18.85,0,0,0-3.18,7.38,20,20,0,0,0,3.09,14.94,16.83,16.83,0,0,0,1.2,1.58c.06.07.16,0,.1-.08a19.56,19.56,0,0,1-1.45-21.92c1.64-2.71,4.06-4.91,5.34-7.84,1.19-2.76,1.05-5.83.82-8.76-.25-3.19-.48-6.34.35-9.48a17.14,17.14,0,0,1,11.88-12.34c6.6-1.73,13.15,1,18.8,4.23l2.26,1.3c.09,0,.18-.07.09-.13C512.3,96.23,506,92.72,499.15,93.22Z" style="fill:#263238"></path><path d="M522,97.64a2.9,2.9,0,0,0-2.79-.72c-.59.36-2.41,5.41-1.77,6.59s2.95.33,2.95.33Z" style="fill:#17A34A"></path><path d="M553.37,174.61l4.14,20.24-58.69.51s8-44,18.21-56.43c6.88-8.41,15.55-8.32,21.38-3.06,1.47,1.33,15.13,18.87,17.38,27.15C557.74,170.34,553.37,174.61,553.37,174.61Z" style="fill:#263238"></path><path d="M532.14,171.22a53.35,53.35,0,0,1,8.61,1.34c1.41.36,2.79.79,4.18,1.25.69.24,1.38.44,2.07.64a8.52,8.52,0,0,0,2.22.41.06.06,0,0,1,0,.11,13.63,13.63,0,0,1-2.12,0,14.07,14.07,0,0,1-2-.37c-1.43-.35-2.85-.77-4.27-1.14-2.88-.74-5.76-1.48-8.68-2C532,171.46,532,171.21,532.14,171.22Z" style="fill:#37474f"></path><path d="M525.08,174.23a57.1,57.1,0,0,1,7.15-.57c1.2,0,2.39.05,3.58.15.57.05,1.14.1,1.71.17s1.25.24,1.87.3c.07,0,.07.12,0,.11-.59,0-1.19,0-1.78,0h-1.79c-1.19,0-2.39,0-3.58,0-2.39,0-4.77,0-7.16,0C525,174.45,525,174.24,525.08,174.23Z" style="fill:#37474f"></path><path d="M526.32,134.17c.42,1.6,4.82,8.67,9.75,8.12,2.53-.28,1.9-9.19,1.9-9.19l.08-.66,1.05-9.3-13-6.43S526.2,133.72,526.32,134.17Z" style="fill: rgb(247, 169, 160);"></path><path d="M526.12,123.05a18.8,18.8,0,0,0,11.93,9.39l1.06-9.3-13.06-6.44S526.08,119.61,526.12,123.05Z" style="fill:#263238"></path><path d="M550.89,108.1c2.68,16.2-6.73,19.64-10.22,20.21-3.17.52-14,1.89-18.38-14s2.35-22.21,9.54-23.78S548.21,91.89,550.89,108.1Z" style="fill: rgb(247, 169, 160);"></path><path d="M546.23,104.77a10.54,10.54,0,0,1-1.13-.11,1.88,1.88,0,0,1-1.13-.34.59.59,0,0,1-.07-.71,1.47,1.47,0,0,1,1.38-.49,2.17,2.17,0,0,1,1.41.61A.62.62,0,0,1,546.23,104.77Z" style="fill:#263238"></path><path d="M535.06,106c.38-.09.71-.23,1.08-.35a1.86,1.86,0,0,0,1-.57.58.58,0,0,0-.08-.71,1.45,1.45,0,0,0-1.45-.18,2.11,2.11,0,0,0-1.25.89A.62.62,0,0,0,535.06,106Z" style="fill:#263238"></path><path d="M537.67,109.87s-.08.06-.07.11c.18,1.1.19,2.4-.76,2.9,0,0,0,.07,0,.06C538.06,112.61,538,110.89,537.67,109.87Z" style="fill:#263238"></path><path d="M536.53,108.84c-1.8.09-1.48,3.69.19,3.6S538,108.76,536.53,108.84Z" style="fill:#263238"></path><path d="M535.84,109.09c-.29.23-.57.62-1,.69s-.79-.26-1.11-.6c0,0-.06,0-.06,0,0,.69.38,1.37,1.13,1.41s1.11-.62,1.22-1.33C536.09,109.18,536,109,535.84,109.09Z" style="fill:#263238"></path><path d="M544.51,109.07s.09.05.09.1c.06,1.11.31,2.38,1.35,2.67,0,0,0,.07,0,.06C544.7,111.83,544.38,110.14,544.51,109.07Z" style="fill:#263238"></path><path d="M545.41,107.83c1.78-.28,2.21,3.3.56,3.56S543.91,108.07,545.41,107.83Z" style="fill:#263238"></path><path d="M546.18,108c.31.16.63.47,1,.45s.64-.44.84-.85c0,0,.06,0,.06,0,.11.68,0,1.42-.68,1.63s-1.09-.34-1.34-1C546,108.11,546.06,107.91,546.18,108Z" style="fill:#263238"></path><path d="M539,118.61c.22.29.44.68.84.77a2.86,2.86,0,0,0,1.23-.11,0,0,0,0,1,0,.06,1.5,1.5,0,0,1-1.49.41,1.19,1.19,0,0,1-.74-1.1C538.87,118.57,539,118.56,539,118.61Z" style="fill:#263238"></path><path d="M543.66,114.17s.4,1.63.48,2.42a4.25,4.25,0,0,1-4.23-.85c-.07-.07,0-.16.1-.12a5.69,5.69,0,0,0,3.5.63c0-.23-.77-2.79-.65-2.81a7.11,7.11,0,0,1,1.82.22c-.73-3.43-2-6.72-2.68-10.16a.11.11,0,0,1,.2-.07,56.62,56.62,0,0,1,3.35,10.82C545.66,114.69,544,114.27,543.66,114.17Z" style="fill:#263238"></path><path d="M543.06,116.61a4.15,4.15,0,0,1-1.52,1.4,1.85,1.85,0,0,1-1.1.16c-.82-.15-.9-.88-.8-1.52a4.34,4.34,0,0,1,.27-1A5.3,5.3,0,0,0,543.06,116.61Z" style="fill:#263238"></path><path d="M541.54,118a1.85,1.85,0,0,1-1.1.16c-.82-.15-.9-.88-.8-1.52A1.88,1.88,0,0,1,541.54,118Z" style="fill:#ff9bbc"></path><path d="M523.17,113.84c3.08.2,3.45-6.86,3.45-6.86s12.91-3,13.38-13.67a18,18,0,0,0,9.65,9.29S548.5,91,539.14,89.27c0,0-11.7-3.48-17.6,6S521.1,113.7,523.17,113.84Z" style="fill:#263238"></path><path d="M540,92.52a11.67,11.67,0,0,1-.29,4.88,12,12,0,0,1-2.21,4.44,9.05,9.05,0,0,1-.83.93l-.42.46-.48.4c-.32.26-.63.53-1,.78l-1,.65c-.18.1-.35.22-.53.31l-.56.26-1.12.51c-.78.27-1.57.49-2.35.7.73-.37,1.48-.66,2.2-1l1.05-.59.52-.29.48-.35c.33-.24.65-.47,1-.69s.59-.53.89-.79l.44-.39.4-.44a10.92,10.92,0,0,0,.77-.89,14,14,0,0,0,2.25-4.14,15.16,15.16,0,0,0,.59-2.32A14.68,14.68,0,0,0,540,92.52Z" style="fill:#263238"></path><path d="M525.07,113.11s-4-4.84-6.19-3.38,1,8.65,3.84,9.46a2.79,2.79,0,0,0,3.6-1.78Z" style="fill: rgb(247, 169, 160);"></path><path d="M519.87,111.77a0,0,0,0,0,0,.07c2,.63,3.11,2.32,3.95,4.1a1.53,1.53,0,0,0-2.32-.24s0,.11.06.1a1.69,1.69,0,0,1,1.92.45,8.14,8.14,0,0,1,1,1.44c.1.17.4,0,.32-.14a.08.08,0,0,0,0,0C524.65,115.07,522.5,111.81,519.87,111.77Z" style="fill:#263238"></path><path d="M523,118.55a.72.72,0,0,0,.91.43.71.71,0,0,0-.48-1.33A.71.71,0,0,0,523,118.55Z" style="fill:#455a64"></path><path d="M523.33,118.43a.35.35,0,0,0,.43.2.32.32,0,0,0,.2-.42.33.33,0,0,0-.42-.21A.34.34,0,0,0,523.33,118.43Z" style="fill:#263238"></path><path d="M521.69,117.79a.49.49,0,0,0,.64.3.5.5,0,0,0,.3-.63.5.5,0,1,0-.94.33Z" style="fill:#455a64"></path><path d="M523,136.28c-6.35-1.78-13.68,20.26-8,22.07C521.66,160.49,528.47,137.82,523,136.28Z" style="fill: rgb(247, 169, 160);"></path><path d="M515.42,147.14c-10.33-9.53-25.68-28.49-26.95-38.72C487.66,102,504.1,80.28,511.23,71c2.57-3.32,15.69,15.3,13.39,19.16-4,6.61-13,16.51-12.39,19.25.56,2.45,2.69,9.5,8.68,20.78C528.83,145.12,522.66,153.82,515.42,147.14Z" style="fill: rgb(247, 169, 160);"></path><path d="M514.36,140.84s3.38,4.4,3.84,6.41,1.13,4.62,1.13,4.62" style="fill:#263238"></path><path d="M531.54,82.14c-2.08,4.68-8.94,9.72-8.94,9.72l-13.93-17.1s5.44-7.15,6.63-12.26c.29-1.26.82-7.55,2.37-13.91,1.76-7.23,4.52-14.58,5.27-15.08,1.43-1,3.69.83,3.66,6s-1.84,15.16-1.79,15.79a4.38,4.38,0,0,0,.18.61h0c.16.23,6.81,3.26,7.46,6.49S532.09,81.39,531.54,82.14Z" style="fill: rgb(247, 169, 160);"></path><path d="M521,64.52s-2.59-12.26-1.58-14.66,4.93-17.74,6.35-18.73,3.69.84,3.66,6-1.84,15.16-1.79,15.79,4.06,10.91,4.14,12S521,64.52,521,64.52Z" style="fill: rgb(247, 169, 160);"></path><path d="M518.54,57.82c0-1.37.1-2.74.16-4.11,0-.69.1-1.37.17-2.06,0-.34.07-.68.12-1,0-.17,0-.35.08-.52s.09-.38.14-.53c.77-2.61,1.56-5.25,2.37-7.86s1.62-5.23,2.51-7.85a8.55,8.55,0,0,1,1-1.88,3.46,3.46,0,0,1,.72-.81,1.75,1.75,0,0,1,1-.44,1.41,1.41,0,0,1,1,.43,3.26,3.26,0,0,1,.61.87,7.39,7.39,0,0,1,.62,2,8.9,8.9,0,0,0-.79-1.88,2.86,2.86,0,0,0-.63-.75,1.1,1.1,0,0,0-.83-.29,2.19,2.19,0,0,0-1.4,1.15,8.28,8.28,0,0,0-.81,1.82c-.75,2.61-1.54,5.25-2.35,7.87s-1.62,5.23-2.54,7.83a10,10,0,0,0-.41,2c-.1.67-.18,1.35-.26,2Z" style="fill:#263238"></path><path d="M523.29,66.15s-2.79-13.44-1.77-15.84,4.93-17.75,6.34-18.74,3.7.84,3.66,6-1.83,15.16-1.78,15.79,2.89,11,3,12S523.29,66.15,523.29,66.15Z" style="fill: rgb(247, 169, 160);"></path><path d="M520.1,59.86c.1-1.68.26-3.35.43-5,.09-.84.2-1.67.32-2.51.06-.42.12-.84.2-1.25a9.52,9.52,0,0,1,.33-1.25c1-3.21,2-6.43,3-9.63l1.57-4.8.4-1.19a11.19,11.19,0,0,1,.47-1.21,4.81,4.81,0,0,1,.72-1.13,2.3,2.3,0,0,1,1.18-.79,1.3,1.3,0,0,1,.78.06,1.88,1.88,0,0,1,.6.43,3.78,3.78,0,0,1,.7,1.14,10.93,10.93,0,0,1,.68,2.47,14.57,14.57,0,0,1,0,5.06,15.74,15.74,0,0,0-.3-5,11.51,11.51,0,0,0-.75-2.35,3.64,3.64,0,0,0-.65-1,.92.92,0,0,0-.89-.3,1.76,1.76,0,0,0-.85.63,5.16,5.16,0,0,0-.6,1c-.32.72-.54,1.55-.8,2.35l-1.53,4.8c-1,3.2-2.06,6.4-3.16,9.59a8.42,8.42,0,0,0-.36,1.18c-.09.4-.18.81-.25,1.22-.16.82-.29,1.65-.43,2.48Z" style="fill:#263238"></path><path d="M522.85,66.14s.31-12.24,1.26-14.48,3-12.87,4.28-13.79,3.43.78,3.4,5.56-.08,10.47,0,11.06.87,9.88,1,10.87S522.85,66.14,522.85,66.14Z" style="fill: rgb(247, 169, 160);"></path><path d="M521.92,62.85c.2-2.16.42-4.31.64-6.47.11-1.07.23-2.15.36-3.23l.09-.81a5.66,5.66,0,0,1,.16-.82c.13-.53.27-1.05.42-1.58.62-2.08,1.27-4.15,2-6.19.37-1,.74-2,1.14-3.06.2-.51.4-1,.62-1.51a9.71,9.71,0,0,1,.76-1.51,1.25,1.25,0,0,1,1.88-.33,4,4,0,0,1,1.15,1.34,7,7,0,0,1,.92,3.26c.05,2.18.05,4.34.05,6.51s0,4.36,0,6.48c0,1.07.11,2.16.18,3.24s.1,2.16.12,3.25c-.37-2.14-.67-4.28-.91-6.45l0-6.51c0-2.17,0-4.34-.1-6.49a6.48,6.48,0,0,0-.81-2.94,3.55,3.55,0,0,0-.92-1.12.59.59,0,0,0-.94.15,9.51,9.51,0,0,0-.71,1.39c-.22.48-.42,1-.63,1.48-.4,1-.78,2-1.15,3-.73,2-1.47,4.07-2.12,6.13-.16.51-.32,1-.45,1.54a13,13,0,0,0-.29,1.58l-.46,3.21Z" style="fill:#263238"></path></g></svg>